<svg xmlns="http://www.w3.org/2000/svg" viewBox="0 0 179.49 32"><defs><style>.cls-1{fill:#7b67ee;}.cls-2{fill:#fff;}</style></defs><title>333334</title><g id="图层_2" data-name="图层 2"><g id="图层_1-2" data-name="图层 1"><path class="cls-1" d="M0,24a8,8,0,0,0,8,8H24a8,8,0,0,0,8-8h0V8h0a8,8,0,0,0-8-8H8A8,8,0,0,0,0,8Z"/><rect class="cls-2" x="18.66" y="18.66" width="5.32" height="5.32" rx="2.66"/><polygon class="cls-2" points="18.66 13.34 13.34 18.66 8.01 23.99 8.01 18.66 8.01 13.34 8.01 8.01 13.34 8.01 13.34 13.34 18.66 8.01 23.99 8.01 18.66 13.34"/><polygon class="cls-1" points="39.98 26.66 46.23 26.66 46.53 24.52 40.28 24.52 39.98 26.66"/><path class="cls-1" d="M54.62,5.31H52.29l-3.71,8.35H50.2L48.68,24.52l-.3,2.14H61.62l.3-2.14H57.17l.46-3.3h4.42l.3-2.14H57.93l.46-3.27h4.42l.3-2.15H58.7l.39-2.79h4.53l.3-2.15H53.09ZM55,24.52h-4.2l.47-3.3h4.2Zm.77-5.44h-4.2l.46-3.27h4.2Zm1.15-8.21-.39,2.79h-4.2l.39-2.79Z"/><polygon class="cls-1" points="59.98 5.31 59.87 5.31 57.72 5.31 57.61 5.31 57.27 7.69 59.65 7.69 59.98 5.31"/><polygon class="cls-1" points="48.99 10.77 46.72 10.77 45.4 13.19 44.48 13.19 47.8 5.31 45.53 5.31 41.31 15.33 44.22 15.33 41 21.22 46.99 21.22 47.3 19.08 44.44 19.08 48.99 10.77"/><polygon class="cls-1" points="68.84 12.02 66.87 26.09 68.75 26.09 70.73 12.02 68.84 12.02"/><polygon class="cls-1" points="74.76 12.02 72.78 26.09 74.67 26.09 76.64 12.02 74.76 12.02"/><polygon class="cls-1" points="77.21 10.87 77.51 8.72 74.29 8.72 74.77 5.31 72.63 5.31 72.14 8.72 68.73 8.72 68.43 10.87 71.84 10.87 69.62 26.66 71.77 26.66 73.99 10.87 77.21 10.87"/><polygon class="cls-1" points="90.06 6.55 81.04 6.55 81.21 5.31 79.03 5.31 78.55 8.7 78.57 8.7 78.56 8.72 87.58 8.72 87.3 10.71 83.63 12.5 80.45 10.71 80.57 9.87 78.4 9.87 78.12 11.86 81.28 13.64 76.8 15.83 76.48 18.12 83.3 14.79 89.19 18.12 89.52 15.83 85.65 13.64 89.31 11.86 90.06 6.55"/><path class="cls-1" d="M76,26.66H87.23l1.24-8.8H77.28ZM79.14,20H86l-.64,4.51H78.5Z"/><polygon class="cls-1" points="116.86 16.58 117.17 14.41 94.94 14.41 94.64 16.58 98.87 16.58 93.62 26.66 115.11 26.66 113.45 17.9 111.1 17.9 112.33 24.48 97.06 24.48 101.24 16.58 116.86 16.58"/><polygon class="cls-1" points="116.34 6.55 97.98 6.55 97.67 8.72 116.04 8.72 116.34 6.55"/><path class="cls-1" d="M175.61,16.56H125.39a2.24,2.24,0,0,1-2.27-2.64L124,8a3.13,3.13,0,0,1,3-2.64h50.22A2.24,2.24,0,0,1,179.46,8l-.84,6A3.13,3.13,0,0,1,175.61,16.56Z"/><path class="cls-2" d="M130.92,8.07a5.65,5.65,0,0,1,1.14.11,1.78,1.78,0,0,1,.83.43,1.71,1.71,0,0,1,.44.87,4.36,4.36,0,0,1,0,1.45,4.55,4.55,0,0,1-.39,1.38,2.6,2.6,0,0,1-.7.88,2.49,2.49,0,0,1-1,.47,4.82,4.82,0,0,1-1.17.13h-2l.81-5.72Zm-.72,4.65a3,3,0,0,0,.71-.08,1.31,1.31,0,0,0,.53-.29,1.61,1.61,0,0,0,.37-.55,4,4,0,0,0,.21-.87,3.55,3.55,0,0,0,0-.9,1.06,1.06,0,0,0-.22-.55.81.81,0,0,0-.45-.28,2.73,2.73,0,0,0-.68-.07h-.65l-.5,3.59Z"/><path class="cls-2" d="M137.87,12.7l-.16,1.09h-3.64l.8-5.72h3.53l-.15,1.09H136l-.16,1.18h2.1l-.15,1.05h-2.1l-.18,1.31Z"/><path class="cls-2" d="M139,8.07h1.39l.78,4.39h.05l2-4.39h1.32l-2.84,5.72H140.2Z"/><path class="cls-2" d="M148.35,12.7l-.15,1.09h-3.65l.81-5.72h3.53l-.16,1.09h-2.26l-.17,1.18h2.1l-.15,1.05h-2.09L146,12.7Z"/><path class="cls-2" d="M152.94,12.7l-.15,1.09h-3.56l.8-5.72h1.27l-.65,4.63Z"/><path class="cls-2" d="M155.77,13.87a4,4,0,0,1-1.1-.13,1.55,1.55,0,0,1-.76-.46,1.85,1.85,0,0,1-.38-.91,5.06,5.06,0,0,1,0-1.44,5.34,5.34,0,0,1,.38-1.44,2.58,2.58,0,0,1,.63-.9,2.18,2.18,0,0,1,.89-.47A4.44,4.44,0,0,1,156.59,8a4.08,4.08,0,0,1,1.11.13,1.56,1.56,0,0,1,.76.47,1.77,1.77,0,0,1,.37.9,5.06,5.06,0,0,1,0,1.44,5.17,5.17,0,0,1-.37,1.44,2.72,2.72,0,0,1-.63.91,2.16,2.16,0,0,1-.89.46A4.47,4.47,0,0,1,155.77,13.87Zm.14-1a1.86,1.86,0,0,0,.67-.1,1,1,0,0,0,.44-.32,1.71,1.71,0,0,0,.28-.59,6.6,6.6,0,0,0,.18-.89,6.16,6.16,0,0,0,.07-.88,1.43,1.43,0,0,0-.11-.6.63.63,0,0,0-.35-.33,1.6,1.6,0,0,0-.64-.11,1.75,1.75,0,0,0-.66.11.91.91,0,0,0-.44.33,1.67,1.67,0,0,0-.28.6,6.75,6.75,0,0,0-.18.88,6.39,6.39,0,0,0-.07.89,1.41,1.41,0,0,0,.11.59.68.68,0,0,0,.35.32A1.6,1.6,0,0,0,155.91,12.83Z"/><path class="cls-2" d="M160.34,8.07h2a4.51,4.51,0,0,1,1.07.11,1.39,1.39,0,0,1,.65.35,1.13,1.13,0,0,1,.29.6,3,3,0,0,1,0,.89,3.53,3.53,0,0,1-.26.94,1.59,1.59,0,0,1-.49.62,1.93,1.93,0,0,1-.75.35,5.38,5.38,0,0,1-1.06.1H161l-.24,1.76h-1.27ZM161.73,11a2.77,2.77,0,0,0,.54,0,1,1,0,0,0,.38-.16.89.89,0,0,0,.24-.3A1.76,1.76,0,0,0,163,10a1.44,1.44,0,0,0,0-.46.48.48,0,0,0-.15-.3.68.68,0,0,0-.34-.17,2.58,2.58,0,0,0-.53,0h-.54l-.27,2Z"/><path class="cls-2" d="M168.61,12.7l-.16,1.09h-3.64l.8-5.72h3.53L169,9.16h-2.27l-.16,1.18h2.1l-.15,1.05h-2.1l-.18,1.31Z"/><path class="cls-2" d="M172.73,13.79l-1.06-2.08H171l-.29,2.08h-1.27l.81-5.72h2a4.58,4.58,0,0,1,1,.1,1.47,1.47,0,0,1,.65.32,1.05,1.05,0,0,1,.33.56,2.58,2.58,0,0,1,0,.84,2.39,2.39,0,0,1-.42,1.12,1.67,1.67,0,0,1-.9.57l1.31,2.21Zm-1-3a4.29,4.29,0,0,0,.55,0,1,1,0,0,0,.38-.14.64.64,0,0,0,.24-.27,1.65,1.65,0,0,0,.12-.86.41.41,0,0,0-.17-.25.89.89,0,0,0-.34-.13,4.16,4.16,0,0,0-.54,0h-.51l-.24,1.72Z"/></g></g></svg>